<svg  viewBox="0 0 48 48" fill="none" xmlns="http://www.w3.org/2000/svg">
<path opacity="0.2" d="M31 22.25C31 23.9806 30.4868 25.6723 29.5254 27.1112C28.5639 28.5502 27.1973 29.6717 25.5985 30.3339C23.9996 30.9962 22.2403 31.1695 20.543 30.8319C18.8456 30.4943 17.2865 29.6609 16.0628 28.4372C14.8391 27.2135 14.0058 25.6544 13.6681 23.957C13.3305 22.2597 13.5038 20.5004 14.1661 18.9015C14.8283 17.3027 15.9498 15.9361 17.3888 14.9746C18.8277 14.0132 20.5194 13.5 22.25 13.5C23.3991 13.5 24.5369 13.7263 25.5985 14.1661C26.6601 14.6058 27.6247 15.2503 28.4372 16.0628C29.2497 16.8753 29.8942 17.8399 30.334 18.9015C30.7737 19.9631 31 21.1009 31 22.25Z" fill="#39468C"/>
<path d="M35.1191 33.8809L29.6437 28.4056C31.2338 26.4986 32.0275 24.0519 31.8595 21.5746C31.6916 19.0974 30.5751 16.7802 28.7422 15.1052C26.9093 13.4301 24.5012 12.5262 22.0189 12.5815C19.5365 12.6368 17.171 13.647 15.4145 15.4019C13.658 17.1569 12.6458 19.5215 12.5883 22.0038C12.5308 24.4861 13.4326 26.895 15.106 28.7294C16.7794 30.5637 19.0956 31.6823 21.5727 31.8524C24.0498 32.0225 26.4972 31.231 28.4056 29.6426L33.8809 35.1191C33.9622 35.2003 34.0587 35.2648 34.165 35.3088C34.2712 35.3528 34.385 35.3755 34.5 35.3755C34.615 35.3755 34.7288 35.3528 34.835 35.3088C34.9413 35.2648 35.0378 35.2003 35.1191 35.1191C35.2004 35.0378 35.2648 34.9412 35.3088 34.835C35.3528 34.7288 35.3755 34.615 35.3755 34.5C35.3755 34.385 35.3528 34.2712 35.3088 34.165C35.2648 34.0587 35.2004 33.9622 35.1191 33.8809ZM14.375 22.25C14.375 20.6925 14.8369 19.1699 15.7022 17.8749C16.5675 16.5798 17.7974 15.5705 19.2364 14.9744C20.6753 14.3784 22.2587 14.2224 23.7863 14.5263C25.3139 14.8302 26.7171 15.5802 27.8185 16.6815C28.9198 17.7829 29.6698 19.1861 29.9737 20.7137C30.2775 22.2413 30.1216 23.8247 29.5256 25.2636C28.9295 26.7026 27.9202 27.9325 26.6251 28.7978C25.3301 29.6631 23.8075 30.125 22.25 30.125C20.1621 30.1227 18.1604 29.2922 16.6841 27.8159C15.2077 26.3395 14.3773 24.3379 14.375 22.25Z" fill="#39468C"/>
</svg>
