<svg  viewBox="0 0 48 48" fill="none" xmlns="http://www.w3.org/2000/svg">
<path opacity="0.2" d="M34.5 24C34.5016 25.4725 34.1926 26.9289 33.5933 28.2739C32.994 29.619 32.1178 30.8226 31.0219 31.8061C30.363 30.5101 29.3582 29.4218 28.1188 28.6618C26.8795 27.9017 25.4539 27.4996 24 27.5C24.8653 27.5 25.7112 27.2434 26.4306 26.7627C27.1501 26.282 27.7108 25.5987 28.042 24.7992C28.3731 23.9998 28.4597 23.1202 28.2909 22.2715C28.1221 21.4228 27.7054 20.6433 27.0936 20.0314C26.4817 19.4196 25.7022 19.0029 24.8535 18.8341C24.0049 18.6653 23.1252 18.7519 22.3258 19.083C21.5263 19.4142 20.8431 19.9749 20.3623 20.6944C19.8816 21.4139 19.625 22.2597 19.625 23.125C19.625 24.2853 20.0859 25.3981 20.9064 26.2186C21.7269 27.0391 22.8397 27.5 24 27.5C22.5461 27.4996 21.1206 27.9017 19.8812 28.6618C18.6418 29.4218 17.637 30.5101 16.9781 31.8061C15.6768 30.6356 14.6888 29.1584 14.1038 27.5088C13.5188 25.8592 13.3555 24.0896 13.6287 22.3608C13.9018 20.632 14.6028 18.9989 15.6679 17.61C16.7329 16.2211 18.1283 15.1205 19.7271 14.4082C21.3258 13.696 23.0773 13.3947 24.8221 13.5317C26.567 13.6688 28.2499 14.2398 29.7179 15.1929C31.1859 16.146 32.3923 17.451 33.2275 18.9891C34.0627 20.5273 34.5001 22.2498 34.5 24Z" fill="#39468C"/>
<path d="M24 12.625C21.7502 12.625 19.551 13.2921 17.6804 14.542C15.8098 15.7919 14.3518 17.5685 13.4909 19.647C12.6299 21.7255 12.4047 24.0126 12.8436 26.2192C13.2825 28.4257 14.3658 30.4525 15.9567 32.0433C17.5475 33.6342 19.5743 34.7175 21.7809 35.1564C23.9874 35.5953 26.2745 35.3701 28.353 34.5091C30.4315 33.6482 32.2081 32.1902 33.458 30.3196C34.7079 28.449 35.375 26.2498 35.375 24C35.3718 20.9841 34.1724 18.0927 32.0398 15.9602C29.9073 13.8276 27.0159 12.6282 24 12.625ZM18.1025 31.6016C18.7355 30.6116 19.6075 29.7969 20.6382 29.2326C21.6688 28.6682 22.825 28.3724 24 28.3724C25.175 28.3724 26.3312 28.6682 27.3618 29.2326C28.3925 29.7969 29.2645 30.6116 29.8975 31.6016C28.2113 32.913 26.1361 33.6249 24 33.6249C21.8639 33.6249 19.7887 32.913 18.1025 31.6016ZM20.5 23.125C20.5 22.4328 20.7053 21.7561 21.0899 21.1805C21.4744 20.6049 22.0211 20.1563 22.6606 19.8914C23.3002 19.6265 24.0039 19.5572 24.6828 19.6923C25.3618 19.8273 25.9854 20.1606 26.4749 20.6501C26.9644 21.1396 27.2977 21.7633 27.4328 22.4422C27.5678 23.1211 27.4985 23.8249 27.2336 24.4644C26.9687 25.1039 26.5201 25.6506 25.9445 26.0351C25.3689 26.4197 24.6922 26.625 24 26.625C23.0717 26.625 22.1815 26.2563 21.5251 25.5999C20.8688 24.9435 20.5 24.0533 20.5 23.125ZM31.1925 30.3886C30.2166 28.9745 28.8444 27.8804 27.2484 27.2441C28.1057 26.5688 28.7313 25.6432 29.0382 24.596C29.345 23.5487 29.3179 22.4319 28.9606 21.4008C28.6033 20.3696 27.9336 19.4755 27.0445 18.8426C26.1554 18.2098 25.0913 17.8697 24 17.8697C22.9087 17.8697 21.8446 18.2098 20.9555 18.8426C20.0665 19.4755 19.3967 20.3696 19.0394 21.4008C18.6821 22.4319 18.655 23.5487 18.9618 24.596C19.2687 25.6432 19.8943 26.5688 20.7516 27.2441C19.1556 27.8804 17.7834 28.9745 16.8075 30.3886C15.5744 29.0019 14.7684 27.2883 14.4866 25.4541C14.2048 23.62 14.4593 21.7435 15.2193 20.0506C15.9793 18.3577 17.2125 16.9206 18.7704 15.9123C20.3282 14.904 22.1443 14.3676 24 14.3676C25.8557 14.3676 27.6718 14.904 29.2297 15.9123C30.7875 16.9206 32.0207 18.3577 32.7807 20.0506C33.5407 21.7435 33.7952 23.62 33.5134 25.4541C33.2316 27.2883 32.4256 29.0019 31.1925 30.3886Z" fill="#39468C"/>
</svg>
